<svg xmlns="http://www.w3.org/2000/svg" width="808" height="1376" viewBox="0 0 808 1376"><defs><style>
  .t { font-family: -apple-system,BlinkMacSystemFont,Segoe UI,Helvetica,Arial,sans-serif; }
  .t-h { font-size: 13px; fill: #c9d1d9; letter-spacing: 1.5px; font-weight: 600; }
  .t-sub { font-size: 11px; fill: #6e7681; }
  .t-label { font-size: 12px; fill: #8b949e; }
  .t-value { font-size: 11px; fill: #6e7681; }
  .t-subhdr { font-size: 11px; fill: #8b949e; letter-spacing: 1px; font-weight: 600; }
  .t-stat-label { font-size: 10px; fill: #8b949e; font-weight: 600; }
  .t-stat-value { font-size: 22px; font-weight: 700; }
  .t-card-title { font-size: 12px; fill: #58a6ff; font-weight: 700; }
  .t-card-detail { font-size: 11px; fill: #8b949e; }
  .t-pill { font-size: 11px; font-weight: 600; }
  .t-bullet { font-size: 12px; fill: #c9d1d9; }
</style></defs><rect width="808" height="1376" rx="12" fill="#0d1117"/><text x="24" y="40" class="t t-h">LANGUAGES</text><text x="24" y="56" class="t t-sub">By bytes of code across all public repos</text><circle cx="114" cy="156" r="70" fill="none" stroke="#3178c6" stroke-width="28" stroke-dasharray="87.08494835750906 352.73802314506196" stroke-dashoffset="0" transform="rotate(-90 114 156)" opacity="0.85"/><circle cx="114" cy="156" r="70" fill="none" stroke="#dea584" stroke-width="28" stroke-dasharray="84.00618755699107 355.81678394557997" stroke-dashoffset="-87.08494835750906" transform="rotate(-90 114 156)" opacity="0.85"/><circle cx="114" cy="156" r="70" fill="none" stroke="#00ADD8" stroke-width="28" stroke-dasharray="77.4088429844525 362.4141285181185" stroke-dashoffset="-171.09113591450011" transform="rotate(-90 114 156)" opacity="0.85"/><circle cx="114" cy="156" r="70" fill="none" stroke="#b07219" stroke-width="28" stroke-dasharray="69.49202949740622 370.3309420051648" stroke-dashoffset="-248.49997889895263" transform="rotate(-90 114 156)" opacity="0.85"/><circle cx="114" cy="156" r="70" fill="none" stroke="#3572A5" stroke-width="28" stroke-dasharray="37.82477554922111 401.9981959533499" stroke-dashoffset="-317.99200839635887" transform="rotate(-90 114 156)" opacity="0.85"/><circle cx="114" cy="156" r="70" fill="none" stroke="#89e051" stroke-width="28" stroke-dasharray="28.58849314766712 411.2344783549039" stroke-dashoffset="-355.81678394557997" transform="rotate(-90 114 156)" opacity="0.85"/><circle cx="114" cy="156" r="70" fill="none" stroke="#000080" stroke-width="28" stroke-dasharray="11.435397259066848 428.38757424350416" stroke-dashoffset="-384.4052770932471" transform="rotate(-90 114 156)" opacity="0.85"/><circle cx="114" cy="156" r="70" fill="none" stroke="#3D6117" stroke-width="28" stroke-dasharray="7.916813487046279 431.90615801552474" stroke-dashoffset="-395.84067435231395" transform="rotate(-90 114 156)" opacity="0.85"/><circle cx="114" cy="156" r="70" fill="none" stroke="#663399" stroke-width="28" stroke-dasharray="7.037167544041137 432.78580395852987" stroke-dashoffset="-403.75748783936024" transform="rotate(-90 114 156)" opacity="0.85"/><circle cx="114" cy="156" r="70" fill="none" stroke="#fcb32c" stroke-width="28" stroke-dasharray="6.157521601035993 433.66544990153506" stroke-dashoffset="-410.7946553834014" transform="rotate(-90 114 156)" opacity="0.85"/><text x="114" y="161" class="t" fill="#c9d1d9" font-size="14" font-weight="700" text-anchor="middle">10</text><text x="114" y="176" class="t" fill="#6e7681" font-size="10" text-anchor="middle">languages</text><rect x="244" y="76" width="12" height="12" rx="2" fill="#3178c6" opacity="0.85"/><text x="264" y="86" class="t t-label">TypeScript</text><text x="444" y="86" class="t t-value" text-anchor="end">19.8%</text><rect x="244" y="100" width="12" height="12" rx="2" fill="#dea584" opacity="0.85"/><text x="264" y="110" class="t t-label">Rust</text><text x="444" y="110" class="t t-value" text-anchor="end">19.1%</text><rect x="244" y="124" width="12" height="12" rx="2" fill="#00ADD8" opacity="0.85"/><text x="264" y="134" class="t t-label">Go</text><text x="444" y="134" class="t t-value" text-anchor="end">17.6%</text><rect x="244" y="148" width="12" height="12" rx="2" fill="#b07219" opacity="0.85"/><text x="264" y="158" class="t t-label">Java</text><text x="444" y="158" class="t t-value" text-anchor="end">15.8%</text><rect x="244" y="172" width="12" height="12" rx="2" fill="#3572A5" opacity="0.85"/><text x="264" y="182" class="t t-label">Python</text><text x="444" y="182" class="t t-value" text-anchor="end">8.6%</text><rect x="244" y="196" width="12" height="12" rx="2" fill="#89e051" opacity="0.85"/><text x="264" y="206" class="t t-label">Shell</text><text x="444" y="206" class="t t-value" text-anchor="end">6.5%</text><rect x="244" y="220" width="12" height="12" rx="2" fill="#000080" opacity="0.85"/><text x="264" y="230" class="t t-label">Lua</text><text x="444" y="230" class="t t-value" text-anchor="end">2.6%</text><rect x="244" y="244" width="12" height="12" rx="2" fill="#3D6117" opacity="0.85"/><text x="264" y="254" class="t t-label">TeX</text><text x="444" y="254" class="t t-value" text-anchor="end">1.8%</text><rect x="244" y="268" width="12" height="12" rx="2" fill="#663399" opacity="0.85"/><text x="264" y="278" class="t t-label">CSS</text><text x="444" y="278" class="t t-value" text-anchor="end">1.6%</text><rect x="244" y="292" width="12" height="12" rx="2" fill="#fcb32c" opacity="0.85"/><text x="264" y="302" class="t t-label">MDX</text><text x="444" y="302" class="t t-value" text-anchor="end">1.4%</text><text x="24" y="372" class="t t-h">EXPERTISE</text><text x="24" y="388" class="t t-sub">Curated from dependencies, topics, and languages via AI analysis</text><text x="24" y="411" class="t t-subhdr">WEB DEVELOPMENT</text><rect x="204" y="398" width="500" height="18" rx="4" fill="#58a6ff" fill-opacity="0.15"/><rect x="204" y="398" width="450" height="18" rx="4" fill="#58a6ff" fill-opacity="0.85"/><text x="714" y="411" class="t t-value">90%</text><text x="204" y="432" class="t t-card-detail">TypeScript · React · Astro · Tailwind CSS · MDX</text><text x="24" y="459" class="t t-subhdr">MACHINE LEARNING</text><rect x="204" y="446" width="500" height="18" rx="4" fill="#3fb950" fill-opacity="0.15"/><rect x="204" y="446" width="425" height="18" rx="4" fill="#3fb950" fill-opacity="0.85"/><text x="714" y="459" class="t t-value">85%</text><text x="204" y="480" class="t t-card-detail">Python · TensorFlow · PyTorch · Scikit-learn · Optuna</text><text x="24" y="507" class="t t-subhdr">SYSTEMS PROGRAMMING</text><rect x="204" y="494" width="500" height="18" rx="4" fill="#d29922" fill-opacity="0.15"/><rect x="204" y="494" width="400" height="18" rx="4" fill="#d29922" fill-opacity="0.85"/><text x="714" y="507" class="t t-value">80%</text><text x="204" y="528" class="t t-card-detail">Rust · Go · Linux · Docker · Nix</text><text x="24" y="555" class="t t-subhdr">MOBILE DEVELOPMENT</text><rect x="204" y="542" width="500" height="18" rx="4" fill="#f85149" fill-opacity="0.15"/><rect x="204" y="542" width="375" height="18" rx="4" fill="#f85149" fill-opacity="0.85"/><text x="714" y="555" class="t t-value">75%</text><text x="204" y="576" class="t t-card-detail">Java · Android · MVVM · Espresso · JUnit</text><text x="24" y="603" class="t t-subhdr">DEVOPS &amp; AUTOMATION</text><rect x="204" y="590" width="500" height="18" rx="4" fill="#bc8cff" fill-opacity="0.15"/><rect x="204" y="590" width="350" height="18" rx="4" fill="#bc8cff" fill-opacity="0.85"/><text x="714" y="603" class="t t-value">70%</text><text x="204" y="624" class="t t-card-detail">GitHub Actions · AWS CDK · Semantic Release · CI/CD · Docker Compose</text><text x="24" y="684" class="t t-h">SIGNATURE PROJECTS</text><text x="24" y="700" class="t t-sub">Top projects by stars</text><rect x="24" y="710" width="760" height="52" rx="6" fill="#161b22" stroke="#30363d" stroke-width="1"/><rect x="24" y="710" width="4" height="52" rx="2" fill="#58a6ff"/><text x="40" y="728" class="t t-card-title">resume-generator</text><text x="768" y="728" class="t t-value" text-anchor="end">★ 9</text><text x="40" y="744" class="t t-card-detail">A data-driven CLI tool that transforms YAML/JSON/TOML resume data into polished PDFs usin…</text><rect x="24" y="772" width="760" height="52" rx="6" fill="#161b22" stroke="#30363d" stroke-width="1"/><rect x="24" y="772" width="4" height="52" rx="2" fill="#3fb950"/><text x="40" y="790" class="t t-card-title">flappy-bird</text><text x="768" y="790" class="t t-value" text-anchor="end">★ 4</text><text x="40" y="806" class="t t-card-detail">A Flappy Bird clone built with JavaFX and Java 21, demonstrating data-oriented design pat…</text><rect x="24" y="834" width="760" height="52" rx="6" fill="#161b22" stroke="#30363d" stroke-width="1"/><rect x="24" y="834" width="4" height="52" rx="2" fill="#d29922"/><text x="40" y="852" class="t t-card-title">chess-cli</text><text x="768" y="852" class="t t-value" text-anchor="end">★ 3</text><text x="40" y="868" class="t t-card-detail">A fully playable chess game in Python with object-oriented design and command-line interf…</text><rect x="24" y="896" width="760" height="52" rx="6" fill="#161b22" stroke="#30363d" stroke-width="1"/><rect x="24" y="896" width="4" height="52" rx="2" fill="#f85149"/><text x="40" y="914" class="t t-card-title">lepus-classifier</text><text x="768" y="914" class="t t-value" text-anchor="end">★ 2</text><text x="40" y="930" class="t t-card-detail">A CNN research project exploring optimal image classification architectures for small dat…</text><rect x="24" y="958" width="760" height="52" rx="6" fill="#161b22" stroke="#30363d" stroke-width="1"/><rect x="24" y="958" width="4" height="52" rx="2" fill="#bc8cff"/><text x="40" y="976" class="t t-card-title">dotfiles</text><text x="768" y="976" class="t t-value" text-anchor="end">★ 2</text><text x="40" y="992" class="t t-card-detail">Modern dotfiles with Chezmoi and Nix, providing one-command environment bootstrap for mac…</text><text x="24" y="1056" class="t t-h">AT A GLANCE</text><text x="24" y="1072" class="t t-sub">Contribution activity over the past year</text><rect x="24" y="1082" width="140" height="72" rx="8" fill="#161b22" stroke="#30363d" stroke-width="1"/><circle cx="38" cy="1098" r="4" fill="#58a6ff"/><text x="48" y="1102" class="t t-stat-label">COMMITS</text><text x="94" y="1134" fill="#58a6ff" class="t t-stat-value" text-anchor="middle">473</text><rect x="179" y="1082" width="140" height="72" rx="8" fill="#161b22" stroke="#30363d" stroke-width="1"/><circle cx="193" cy="1098" r="4" fill="#3fb950"/><text x="203" y="1102" class="t t-stat-label">PRS</text><text x="249" y="1134" fill="#3fb950" class="t t-stat-value" text-anchor="middle">3</text><rect x="334" y="1082" width="140" height="72" rx="8" fill="#161b22" stroke="#30363d" stroke-width="1"/><circle cx="348" cy="1098" r="4" fill="#d29922"/><text x="358" y="1102" class="t t-stat-label">REVIEWS</text><text x="404" y="1134" fill="#d29922" class="t t-stat-value" text-anchor="middle">5</text><rect x="489" y="1082" width="140" height="72" rx="8" fill="#161b22" stroke="#30363d" stroke-width="1"/><circle cx="503" cy="1098" r="4" fill="#bc8cff"/><text x="513" y="1102" class="t t-stat-label">REPOS</text><text x="559" y="1134" fill="#bc8cff" class="t t-stat-value" text-anchor="middle">13</text><text x="24" y="1200" class="t t-h">OPEN SOURCE CONTRIBUTIONS</text><text x="24" y="1216" class="t t-sub">External repositories contributed to (all time)</text><rect x="24" y="1226" width="760" height="44" rx="6" fill="#161b22" stroke="#30363d" stroke-width="1"/><rect x="24" y="1226" width="4" height="44" rx="2" fill="#58a6ff"/><text x="40" y="1244" class="t t-card-title">MathisWellmann/gym-rs</text><text x="40" y="1260" class="t t-card-detail">★ 125 · Rust</text><rect x="24" y="1278" width="760" height="44" rx="6" fill="#161b22" stroke="#30363d" stroke-width="1"/><rect x="24" y="1278" width="4" height="44" rx="2" fill="#3fb950"/><text x="40" y="1296" class="t t-card-title">getzep/graphiti</text><text x="40" y="1312" class="t t-card-detail">★ 22,688 · Python</text></svg>