<svg xmlns="http://www.w3.org/2000/svg" width="808" height="1498" viewBox="0 0 808 1498"><defs><style>
  .t { font-family: -apple-system,BlinkMacSystemFont,Segoe UI,Helvetica,Arial,sans-serif; }
  .t-h { font-size: 13px; fill: #c9d1d9; letter-spacing: 1.5px; font-weight: 600; }
  .t-sub { font-size: 11px; fill: #6e7681; }
  .t-label { font-size: 12px; fill: #8b949e; }
  .t-value { font-size: 11px; fill: #6e7681; }
  .t-subhdr { font-size: 11px; fill: #8b949e; letter-spacing: 1px; font-weight: 600; }
  .t-stat-label { font-size: 10px; fill: #8b949e; font-weight: 600; }
  .t-stat-value { font-size: 22px; font-weight: 700; }
  .t-card-title { font-size: 12px; fill: #58a6ff; font-weight: 700; }
  .t-card-detail { font-size: 11px; fill: #8b949e; }
  .t-pill { font-size: 11px; font-weight: 600; }
  .t-bullet { font-size: 12px; fill: #c9d1d9; }
</style></defs><rect width="808" height="1498" rx="12" fill="#0d1117"/><text x="24" y="40" class="t t-h">LANGUAGES</text><text x="24" y="56" class="t t-sub">By bytes of code across all public repos</text><circle cx="114" cy="156" r="70" fill="none" stroke="#3178c6" stroke-width="28" stroke-dasharray="91.04335510103219 348.7796164015388" stroke-dashoffset="0" transform="rotate(-90 114 156)" opacity="0.85"/><circle cx="114" cy="156" r="70" fill="none" stroke="#dea584" stroke-width="28" stroke-dasharray="83.1265416139859 356.6964298885851" stroke-dashoffset="-91.04335510103219" transform="rotate(-90 114 156)" opacity="0.85"/><circle cx="114" cy="156" r="70" fill="none" stroke="#00ADD8" stroke-width="28" stroke-dasharray="76.52919704144735 363.2937744611237" stroke-dashoffset="-174.1698967150181" transform="rotate(-90 114 156)" opacity="0.85"/><circle cx="114" cy="156" r="70" fill="none" stroke="#b07219" stroke-width="28" stroke-dasharray="69.05220652590366 370.77076497666735" stroke-dashoffset="-250.69909375646546" transform="rotate(-90 114 156)" opacity="0.85"/><circle cx="114" cy="156" r="70" fill="none" stroke="#3572A5" stroke-width="28" stroke-dasharray="37.384952577718536 402.4380189248525" stroke-dashoffset="-319.75130028236913" transform="rotate(-90 114 156)" opacity="0.85"/><circle cx="114" cy="156" r="70" fill="none" stroke="#89e051" stroke-width="28" stroke-dasharray="28.148670176164547 411.67430132640646" stroke-dashoffset="-357.13625286008767" transform="rotate(-90 114 156)" opacity="0.85"/><circle cx="114" cy="156" r="70" fill="none" stroke="#000080" stroke-width="28" stroke-dasharray="11.435397259066848 428.38757424350416" stroke-dashoffset="-385.2849230362522" transform="rotate(-90 114 156)" opacity="0.85"/><circle cx="114" cy="156" r="70" fill="none" stroke="#3D6117" stroke-width="28" stroke-dasharray="7.916813487046279 431.90615801552474" stroke-dashoffset="-396.7203202953191" transform="rotate(-90 114 156)" opacity="0.85"/><circle cx="114" cy="156" r="70" fill="none" stroke="#663399" stroke-width="28" stroke-dasharray="7.037167544041137 432.78580395852987" stroke-dashoffset="-404.63713378236537" transform="rotate(-90 114 156)" opacity="0.85"/><circle cx="114" cy="156" r="70" fill="none" stroke="#fcb32c" stroke-width="28" stroke-dasharray="6.157521601035993 433.66544990153506" stroke-dashoffset="-411.6743013264065" transform="rotate(-90 114 156)" opacity="0.85"/><text x="114" y="161" class="t" fill="#c9d1d9" font-size="14" font-weight="700" text-anchor="middle">10</text><text x="114" y="176" class="t" fill="#6e7681" font-size="10" text-anchor="middle">languages</text><rect x="244" y="76" width="12" height="12" rx="2" fill="#3178c6" opacity="0.85"/><text x="264" y="86" class="t t-label">TypeScript</text><text x="444" y="86" class="t t-value" text-anchor="end">20.7%</text><rect x="244" y="100" width="12" height="12" rx="2" fill="#dea584" opacity="0.85"/><text x="264" y="110" class="t t-label">Rust</text><text x="444" y="110" class="t t-value" text-anchor="end">18.9%</text><rect x="244" y="124" width="12" height="12" rx="2" fill="#00ADD8" opacity="0.85"/><text x="264" y="134" class="t t-label">Go</text><text x="444" y="134" class="t t-value" text-anchor="end">17.4%</text><rect x="244" y="148" width="12" height="12" rx="2" fill="#b07219" opacity="0.85"/><text x="264" y="158" class="t t-label">Java</text><text x="444" y="158" class="t t-value" text-anchor="end">15.7%</text><rect x="244" y="172" width="12" height="12" rx="2" fill="#3572A5" opacity="0.85"/><text x="264" y="182" class="t t-label">Python</text><text x="444" y="182" class="t t-value" text-anchor="end">8.5%</text><rect x="244" y="196" width="12" height="12" rx="2" fill="#89e051" opacity="0.85"/><text x="264" y="206" class="t t-label">Shell</text><text x="444" y="206" class="t t-value" text-anchor="end">6.4%</text><rect x="244" y="220" width="12" height="12" rx="2" fill="#000080" opacity="0.85"/><text x="264" y="230" class="t t-label">Lua</text><text x="444" y="230" class="t t-value" text-anchor="end">2.6%</text><rect x="244" y="244" width="12" height="12" rx="2" fill="#3D6117" opacity="0.85"/><text x="264" y="254" class="t t-label">TeX</text><text x="444" y="254" class="t t-value" text-anchor="end">1.8%</text><rect x="244" y="268" width="12" height="12" rx="2" fill="#663399" opacity="0.85"/><text x="264" y="278" class="t t-label">CSS</text><text x="444" y="278" class="t t-value" text-anchor="end">1.6%</text><rect x="244" y="292" width="12" height="12" rx="2" fill="#fcb32c" opacity="0.85"/><text x="264" y="302" class="t t-label">MDX</text><text x="444" y="302" class="t t-value" text-anchor="end">1.4%</text><text x="24" y="372" class="t t-h">EXPERTISE</text><text x="24" y="388" class="t t-sub">Curated from dependencies, topics, and languages via AI analysis</text><text x="24" y="409" class="t t-subhdr">WEB DEVELOPMENT</text><rect x="24" y="420" width="89" height="26" rx="13" fill="#58a6ff" fill-opacity="0.15" stroke="#58a6ff" stroke-opacity="0.4" stroke-width="1"/><text x="68.5" y="436.6666666666667" fill="#58a6ff" font-size="11" class="t t-pill" text-anchor="middle">TypeScript</text><rect x="123" y="420" width="59" height="26" rx="13" fill="#58a6ff" fill-opacity="0.15" stroke="#58a6ff" stroke-opacity="0.4" stroke-width="1"/><text x="152.5" y="436.6666666666667" fill="#58a6ff" font-size="11" class="t t-pill" text-anchor="middle">React</text><rect x="192" y="420" width="59" height="26" rx="13" fill="#58a6ff" fill-opacity="0.15" stroke="#58a6ff" stroke-opacity="0.4" stroke-width="1"/><text x="221.5" y="436.6666666666667" fill="#58a6ff" font-size="11" class="t t-pill" text-anchor="middle">Astro</text><rect x="261" y="420" width="101" height="26" rx="13" fill="#58a6ff" fill-opacity="0.15" stroke="#58a6ff" stroke-opacity="0.4" stroke-width="1"/><text x="311.5" y="436.6666666666667" fill="#58a6ff" font-size="11" class="t t-pill" text-anchor="middle">Tailwind CSS</text><rect x="372" y="420" width="47" height="26" rx="13" fill="#58a6ff" fill-opacity="0.15" stroke="#58a6ff" stroke-opacity="0.4" stroke-width="1"/><text x="395.5" y="436.6666666666667" fill="#58a6ff" font-size="11" class="t t-pill" text-anchor="middle">MDX</text><line x1="24" y1="462" x2="784" y2="462" stroke="#30363d" stroke-opacity="0.6" stroke-width="1"/><text x="24" y="485" class="t t-subhdr">MACHINE LEARNING</text><rect x="24" y="496" width="65" height="26" rx="13" fill="#3fb950" fill-opacity="0.15" stroke="#3fb950" stroke-opacity="0.4" stroke-width="1"/><text x="56.5" y="512.6666666666666" fill="#3fb950" font-size="11" class="t t-pill" text-anchor="middle">Python</text><rect x="99" y="496" width="89" height="26" rx="13" fill="#3fb950" fill-opacity="0.15" stroke="#3fb950" stroke-opacity="0.4" stroke-width="1"/><text x="143.5" y="512.6666666666666" fill="#3fb950" font-size="11" class="t t-pill" text-anchor="middle">TensorFlow</text><rect x="198" y="496" width="71" height="26" rx="13" fill="#3fb950" fill-opacity="0.15" stroke="#3fb950" stroke-opacity="0.4" stroke-width="1"/><text x="233.5" y="512.6666666666666" fill="#3fb950" font-size="11" class="t t-pill" text-anchor="middle">PyTorch</text><rect x="279" y="496" width="101" height="26" rx="13" fill="#3fb950" fill-opacity="0.15" stroke="#3fb950" stroke-opacity="0.4" stroke-width="1"/><text x="329.5" y="512.6666666666666" fill="#3fb950" font-size="11" class="t t-pill" text-anchor="middle">Scikit-learn</text><rect x="390" y="496" width="65" height="26" rx="13" fill="#3fb950" fill-opacity="0.15" stroke="#3fb950" stroke-opacity="0.4" stroke-width="1"/><text x="422.5" y="512.6666666666666" fill="#3fb950" font-size="11" class="t t-pill" text-anchor="middle">Optuna</text><line x1="24" y1="538" x2="784" y2="538" stroke="#30363d" stroke-opacity="0.6" stroke-width="1"/><text x="24" y="561" class="t t-subhdr">SYSTEMS PROGRAMMING</text><rect x="24" y="572" width="53" height="26" rx="13" fill="#d29922" fill-opacity="0.15" stroke="#d29922" stroke-opacity="0.4" stroke-width="1"/><text x="50.5" y="588.6666666666666" fill="#d29922" font-size="11" class="t t-pill" text-anchor="middle">Rust</text><rect x="87" y="572" width="41" height="26" rx="13" fill="#d29922" fill-opacity="0.15" stroke="#d29922" stroke-opacity="0.4" stroke-width="1"/><text x="107.5" y="588.6666666666666" fill="#d29922" font-size="11" class="t t-pill" text-anchor="middle">Go</text><rect x="138" y="572" width="59" height="26" rx="13" fill="#d29922" fill-opacity="0.15" stroke="#d29922" stroke-opacity="0.4" stroke-width="1"/><text x="167.5" y="588.6666666666666" fill="#d29922" font-size="11" class="t t-pill" text-anchor="middle">Linux</text><rect x="207" y="572" width="65" height="26" rx="13" fill="#d29922" fill-opacity="0.15" stroke="#d29922" stroke-opacity="0.4" stroke-width="1"/><text x="239.5" y="588.6666666666666" fill="#d29922" font-size="11" class="t t-pill" text-anchor="middle">Docker</text><rect x="282" y="572" width="113" height="26" rx="13" fill="#d29922" fill-opacity="0.15" stroke="#d29922" stroke-opacity="0.4" stroke-width="1"/><text x="338.5" y="588.6666666666666" fill="#d29922" font-size="11" class="t t-pill" text-anchor="middle">GitHub Actions</text><line x1="24" y1="614" x2="784" y2="614" stroke="#30363d" stroke-opacity="0.6" stroke-width="1"/><text x="24" y="637" class="t t-subhdr">DATA SCIENCE</text><rect x="24" y="648" width="65" height="26" rx="13" fill="#f85149" fill-opacity="0.15" stroke="#f85149" stroke-opacity="0.4" stroke-width="1"/><text x="56.5" y="664.6666666666666" fill="#f85149" font-size="11" class="t t-pill" text-anchor="middle">Pandas</text><rect x="99" y="648" width="59" height="26" rx="13" fill="#f85149" fill-opacity="0.15" stroke="#f85149" stroke-opacity="0.4" stroke-width="1"/><text x="128.5" y="664.6666666666666" fill="#f85149" font-size="11" class="t t-pill" text-anchor="middle">NumPy</text><rect x="168" y="648" width="89" height="26" rx="13" fill="#f85149" fill-opacity="0.15" stroke="#f85149" stroke-opacity="0.4" stroke-width="1"/><text x="212.5" y="664.6666666666666" fill="#f85149" font-size="11" class="t t-pill" text-anchor="middle">Matplotlib</text><rect x="267" y="648" width="71" height="26" rx="13" fill="#f85149" fill-opacity="0.15" stroke="#f85149" stroke-opacity="0.4" stroke-width="1"/><text x="302.5" y="664.6666666666666" fill="#f85149" font-size="11" class="t t-pill" text-anchor="middle">Seaborn</text><rect x="348" y="648" width="89" height="26" rx="13" fill="#f85149" fill-opacity="0.15" stroke="#f85149" stroke-opacity="0.4" stroke-width="1"/><text x="392.5" y="664.6666666666666" fill="#f85149" font-size="11" class="t t-pill" text-anchor="middle">SQLAlchemy</text><line x1="24" y1="690" x2="784" y2="690" stroke="#30363d" stroke-opacity="0.6" stroke-width="1"/><text x="24" y="713" class="t t-subhdr">DEVOPS &amp; AUTOMATION</text><rect x="24" y="724" width="71" height="26" rx="13" fill="#bc8cff" fill-opacity="0.15" stroke="#bc8cff" stroke-opacity="0.4" stroke-width="1"/><text x="59.5" y="740.6666666666666" fill="#bc8cff" font-size="11" class="t t-pill" text-anchor="middle">AWS CDK</text><rect x="105" y="724" width="113" height="26" rx="13" fill="#bc8cff" fill-opacity="0.15" stroke="#bc8cff" stroke-opacity="0.4" stroke-width="1"/><text x="161.5" y="740.6666666666666" fill="#bc8cff" font-size="11" class="t t-pill" text-anchor="middle">GitHub Actions</text><rect x="228" y="724" width="113" height="26" rx="13" fill="#bc8cff" fill-opacity="0.15" stroke="#bc8cff" stroke-opacity="0.4" stroke-width="1"/><text x="284.5" y="740.6666666666666" fill="#bc8cff" font-size="11" class="t t-pill" text-anchor="middle">Docker Compose</text><rect x="351" y="724" width="125" height="26" rx="13" fill="#bc8cff" fill-opacity="0.15" stroke="#bc8cff" stroke-opacity="0.4" stroke-width="1"/><text x="413.5" y="740.6666666666666" fill="#bc8cff" font-size="11" class="t t-pill" text-anchor="middle">Semantic Release</text><rect x="486" y="724" width="71" height="26" rx="13" fill="#bc8cff" fill-opacity="0.15" stroke="#bc8cff" stroke-opacity="0.4" stroke-width="1"/><text x="521.5" y="740.6666666666666" fill="#bc8cff" font-size="11" class="t t-pill" text-anchor="middle">Chezmoi</text><text x="24" y="806" class="t t-h">SIGNATURE PROJECTS</text><text x="24" y="822" class="t t-sub">Top projects by stars</text><rect x="24" y="832" width="760" height="52" rx="6" fill="#161b22" stroke="#30363d" stroke-width="1"/><rect x="24" y="832" width="4" height="52" rx="2" fill="#58a6ff"/><text x="40" y="850" class="t t-card-title">resume-generator</text><text x="768" y="850" class="t t-value" text-anchor="end">★ 9</text><text x="40" y="866" class="t t-card-detail">A data-driven CLI tool that transforms YAML/JSON/TOML resume data into polished PDFs usin…</text><rect x="24" y="894" width="760" height="52" rx="6" fill="#161b22" stroke="#30363d" stroke-width="1"/><rect x="24" y="894" width="4" height="52" rx="2" fill="#3fb950"/><text x="40" y="912" class="t t-card-title">flappy-bird</text><text x="768" y="912" class="t t-value" text-anchor="end">★ 4</text><text x="40" y="928" class="t t-card-detail">A Flappy Bird clone built with JavaFX and Java 21, demonstrating data-oriented design pat…</text><rect x="24" y="956" width="760" height="52" rx="6" fill="#161b22" stroke="#30363d" stroke-width="1"/><rect x="24" y="956" width="4" height="52" rx="2" fill="#d29922"/><text x="40" y="974" class="t t-card-title">chess-cli</text><text x="768" y="974" class="t t-value" text-anchor="end">★ 3</text><text x="40" y="990" class="t t-card-detail">A fully playable chess game in Python with object-oriented design and command-line interf…</text><rect x="24" y="1018" width="760" height="52" rx="6" fill="#161b22" stroke="#30363d" stroke-width="1"/><rect x="24" y="1018" width="4" height="52" rx="2" fill="#f85149"/><text x="40" y="1036" class="t t-card-title">lepus-classifier</text><text x="768" y="1036" class="t t-value" text-anchor="end">★ 2</text><text x="40" y="1052" class="t t-card-detail">A CNN research project exploring optimal image classification architectures for small dat…</text><rect x="24" y="1080" width="760" height="52" rx="6" fill="#161b22" stroke="#30363d" stroke-width="1"/><rect x="24" y="1080" width="4" height="52" rx="2" fill="#bc8cff"/><text x="40" y="1098" class="t t-card-title">dotfiles</text><text x="768" y="1098" class="t t-value" text-anchor="end">★ 2</text><text x="40" y="1114" class="t t-card-detail">Modern dotfiles with Chezmoi and Nix, providing one-command environment bootstrap for mac…</text><text x="24" y="1178" class="t t-h">AT A GLANCE</text><text x="24" y="1194" class="t t-sub">Contribution activity over the past year</text><rect x="24" y="1204" width="140" height="72" rx="8" fill="#161b22" stroke="#30363d" stroke-width="1"/><circle cx="38" cy="1220" r="4" fill="#58a6ff"/><text x="48" y="1224" class="t t-stat-label">COMMITS</text><text x="94" y="1256" fill="#58a6ff" class="t t-stat-value" text-anchor="middle">472</text><rect x="179" y="1204" width="140" height="72" rx="8" fill="#161b22" stroke="#30363d" stroke-width="1"/><circle cx="193" cy="1220" r="4" fill="#3fb950"/><text x="203" y="1224" class="t t-stat-label">PRS</text><text x="249" y="1256" fill="#3fb950" class="t t-stat-value" text-anchor="middle">3</text><rect x="334" y="1204" width="140" height="72" rx="8" fill="#161b22" stroke="#30363d" stroke-width="1"/><circle cx="348" cy="1220" r="4" fill="#d29922"/><text x="358" y="1224" class="t t-stat-label">REVIEWS</text><text x="404" y="1256" fill="#d29922" class="t t-stat-value" text-anchor="middle">5</text><rect x="489" y="1204" width="140" height="72" rx="8" fill="#161b22" stroke="#30363d" stroke-width="1"/><circle cx="503" cy="1220" r="4" fill="#bc8cff"/><text x="513" y="1224" class="t t-stat-label">REPOS</text><text x="559" y="1256" fill="#bc8cff" class="t t-stat-value" text-anchor="middle">13</text><text x="24" y="1322" class="t t-h">OPEN SOURCE CONTRIBUTIONS</text><text x="24" y="1338" class="t t-sub">External repositories contributed to (all time)</text><rect x="24" y="1348" width="760" height="44" rx="6" fill="#161b22" stroke="#30363d" stroke-width="1"/><rect x="24" y="1348" width="4" height="44" rx="2" fill="#58a6ff"/><text x="40" y="1366" class="t t-card-title">MathisWellmann/gym-rs</text><text x="40" y="1382" class="t t-card-detail">★ 125 · Rust</text><rect x="24" y="1400" width="760" height="44" rx="6" fill="#161b22" stroke="#30363d" stroke-width="1"/><rect x="24" y="1400" width="4" height="44" rx="2" fill="#3fb950"/><text x="40" y="1418" class="t t-card-title">getzep/graphiti</text><text x="40" y="1434" class="t t-card-detail">★ 22,688 · Python</text></svg>