<svg xmlns="http://www.w3.org/2000/svg" width="808" height="1890" viewBox="0 0 808 1890"><defs><style>
  .t { font-family: -apple-system,BlinkMacSystemFont,Segoe UI,Helvetica,Arial,sans-serif; }
  .t-h { font-size: 13px; fill: #c9d1d9; letter-spacing: 1.5px; font-weight: 600; }
  .t-sub { font-size: 11px; fill: #6e7681; }
  .t-label { font-size: 12px; fill: #8b949e; }
  .t-value { font-size: 11px; fill: #6e7681; }
  .t-subhdr { font-size: 11px; fill: #8b949e; letter-spacing: 1px; font-weight: 600; }
  .t-stat-label { font-size: 10px; fill: #8b949e; font-weight: 600; }
  .t-stat-value { font-size: 22px; font-weight: 700; }
  .t-card-title { font-size: 12px; fill: #58a6ff; font-weight: 700; }
  .t-card-detail { font-size: 11px; fill: #8b949e; }
  .t-pill { font-size: 11px; font-weight: 600; }
  .t-bullet { font-size: 12px; fill: #c9d1d9; }
</style></defs><rect width="808" height="1890" rx="12" fill="#0d1117"/><text x="24" y="40" class="t t-h">WORK DOMAINS</text><text x="24" y="56" class="t t-sub">Extracted from project READMEs via AI analysis</text><rect x="24" y="66" width="98" height="36" rx="18" fill="#58a6ff" fill-opacity="0.15" stroke="#58a6ff" stroke-opacity="0.4" stroke-width="1"/><text x="73" y="88.66666666666667" fill="#58a6ff" font-size="14" class="t t-pill" text-anchor="middle">CLI Tools</text><rect x="132" y="66" width="105" height="36" rx="18" fill="#3fb950" fill-opacity="0.15" stroke="#3fb950" stroke-opacity="0.4" stroke-width="1"/><text x="184.5" y="88.66666666666667" fill="#3fb950" font-size="14" class="t t-pill" text-anchor="middle">Automation</text><rect x="247" y="66" width="143" height="32" rx="16" fill="#d29922" fill-opacity="0.15" stroke="#d29922" stroke-opacity="0.4" stroke-width="1"/><text x="318.5" y="86.33333333333333" fill="#d29922" font-size="13" class="t t-pill" text-anchor="middle">Machine Learning</text><rect x="400" y="66" width="77" height="28" rx="14" fill="#f85149" fill-opacity="0.15" stroke="#f85149" stroke-opacity="0.4" stroke-width="1"/><text x="438.5" y="83.66666666666667" fill="#f85149" font-size="11" class="t t-pill" text-anchor="middle">Game Dev</text><rect x="487" y="66" width="65" height="28" rx="14" fill="#bc8cff" fill-opacity="0.15" stroke="#bc8cff" stroke-opacity="0.4" stroke-width="1"/><text x="519.5" y="83.66666666666667" fill="#bc8cff" font-size="11" class="t t-pill" text-anchor="middle">DevOps</text><rect x="562" y="66" width="77" height="28" rx="14" fill="#39d2c0" fill-opacity="0.15" stroke="#39d2c0" stroke-opacity="0.4" stroke-width="1"/><text x="600.5" y="83.66666666666667" fill="#39d2c0" font-size="11" class="t t-pill" text-anchor="middle">Web Apps</text><rect x="649" y="66" width="88" height="24" rx="12" fill="#db61a2" fill-opacity="0.15" stroke="#db61a2" stroke-opacity="0.4" stroke-width="1"/><text x="693" y="81" fill="#db61a2" font-size="9" class="t t-pill" text-anchor="middle">Desktop Apps</text><rect x="24" y="100" width="103" height="24" rx="12" fill="#79c0ff" fill-opacity="0.15" stroke="#79c0ff" stroke-opacity="0.4" stroke-width="1"/><text x="75.5" y="115" fill="#79c0ff" font-size="9" class="t t-pill" text-anchor="middle">Computer Vision</text><rect x="137" y="100" width="88" height="24" rx="12" fill="#58a6ff" fill-opacity="0.15" stroke="#58a6ff" stroke-opacity="0.4" stroke-width="1"/><text x="181" y="115" fill="#58a6ff" font-size="9" class="t t-pill" text-anchor="middle">Data Science</text><rect x="235" y="100" width="103" height="24" rx="12" fill="#3fb950" fill-opacity="0.15" stroke="#3fb950" stroke-opacity="0.4" stroke-width="1"/><text x="286.5" y="115" fill="#3fb950" font-size="9" class="t t-pill" text-anchor="middle">API Development</text><rect x="348" y="100" width="108" height="24" rx="12" fill="#d29922" fill-opacity="0.15" stroke="#d29922" stroke-opacity="0.4" stroke-width="1"/><text x="402" y="115" fill="#d29922" font-size="9" class="t t-pill" text-anchor="middle">Personal Website</text><rect x="466" y="100" width="73" height="24" rx="12" fill="#f85149" fill-opacity="0.15" stroke="#f85149" stroke-opacity="0.4" stroke-width="1"/><text x="502.5" y="115" fill="#f85149" font-size="9" class="t t-pill" text-anchor="middle">Education</text><rect x="549" y="100" width="43" height="24" rx="12" fill="#bc8cff" fill-opacity="0.15" stroke="#bc8cff" stroke-opacity="0.4" stroke-width="1"/><text x="570.5" y="115" fill="#bc8cff" font-size="9" class="t t-pill" text-anchor="middle">IoT</text><rect x="602" y="100" width="68" height="24" rx="12" fill="#39d2c0" fill-opacity="0.15" stroke="#39d2c0" stroke-opacity="0.4" stroke-width="1"/><text x="636" y="115" fill="#39d2c0" font-size="9" class="t t-pill" text-anchor="middle">Research</text><rect x="680" y="100" width="83" height="24" rx="12" fill="#db61a2" fill-opacity="0.15" stroke="#db61a2" stroke-opacity="0.4" stroke-width="1"/><text x="721.5" y="115" fill="#db61a2" font-size="9" class="t t-pill" text-anchor="middle">Mobile Apps</text><text x="24" y="174" class="t t-h">LANGUAGES</text><text x="24" y="190" class="t t-sub">By bytes of code across all public repos</text><circle cx="114" cy="290" r="70" fill="none" stroke="#dea584" stroke-width="28" stroke-dasharray="87.96459430051421 351.85837720205683" stroke-dashoffset="0" transform="rotate(-90 114 290)" opacity="0.85"/><circle cx="114" cy="290" r="70" fill="none" stroke="#00ADD8" stroke-width="28" stroke-dasharray="84.00618755699107 355.81678394557997" stroke-dashoffset="-87.96459430051421" transform="rotate(-90 114 290)" opacity="0.85"/><circle cx="114" cy="290" r="70" fill="none" stroke="#b07219" stroke-width="28" stroke-dasharray="75.64955109844222 364.1734204041288" stroke-dashoffset="-171.97078185750527" transform="rotate(-90 114 290)" opacity="0.85"/><circle cx="114" cy="290" r="70" fill="none" stroke="#3178c6" stroke-width="28" stroke-dasharray="63.77433086787279 376.04864063469824" stroke-dashoffset="-247.6203329559475" transform="rotate(-90 114 290)" opacity="0.85"/><circle cx="114" cy="290" r="70" fill="none" stroke="#3572A5" stroke-width="28" stroke-dasharray="40.90353634973911 398.9194351528319" stroke-dashoffset="-311.3946638238203" transform="rotate(-90 114 290)" opacity="0.85"/><circle cx="114" cy="290" r="70" fill="none" stroke="#89e051" stroke-width="28" stroke-dasharray="32.98672286269282 406.8362486398782" stroke-dashoffset="-352.2982001735594" transform="rotate(-90 114 290)" opacity="0.85"/><circle cx="114" cy="290" r="70" fill="none" stroke="#000080" stroke-width="28" stroke-dasharray="11.875220230569418 427.9477512720016" stroke-dashoffset="-385.2849230362522" transform="rotate(-90 114 290)" opacity="0.85"/><circle cx="114" cy="290" r="70" fill="none" stroke="#3D6117" stroke-width="28" stroke-dasharray="8.79645943005142 431.0265120725196" stroke-dashoffset="-397.16014326682165" transform="rotate(-90 114 290)" opacity="0.85"/><circle cx="114" cy="290" r="70" fill="none" stroke="#663399" stroke-width="28" stroke-dasharray="7.476990515543708 432.3459809870273" stroke-dashoffset="-405.95660269687306" transform="rotate(-90 114 290)" opacity="0.85"/><circle cx="114" cy="290" r="70" fill="none" stroke="#00ADD8" stroke-width="28" stroke-dasharray="5.277875658030853 434.5450958445402" stroke-dashoffset="-413.4335932124168" transform="rotate(-90 114 290)" opacity="0.85"/><text x="114" y="295" class="t" fill="#c9d1d9" font-size="14" font-weight="700" text-anchor="middle">10</text><text x="114" y="310" class="t" fill="#6e7681" font-size="10" text-anchor="middle">languages</text><rect x="244" y="210" width="12" height="12" rx="2" fill="#dea584" opacity="0.85"/><text x="264" y="220" class="t t-label">Rust</text><text x="444" y="220" class="t t-value" text-anchor="end">20.0%</text><g transform="translate(494, 204) scale(0.7)"><path d="M8 16c3.314 0 6-2 6-5.5 0-1.44-.714-2.89-1.166-3.778C12.024 5.143 10.9 3.5 8 0 5.1 3.5 3.976 5.143 3.166 6.722 2.714 7.61 2 9.06 2 10.5 2 14 4.686 16 8 16m0-1c-2.21 0-4-1.343-4-3.5 0-.93.258-1.695.672-2.528C5.2 7.865 6.1 6.5 8 4c1.9 2.5 2.8 3.865 3.328 4.972.414.833.672 1.598.672 2.528 0 2.157-1.79 3.5-4 3.5" fill="#f0883e"/></g><rect x="244" y="234" width="12" height="12" rx="2" fill="#00ADD8" opacity="0.85"/><text x="264" y="244" class="t t-label">Go</text><text x="444" y="244" class="t t-value" text-anchor="end">19.1%</text><g transform="translate(494, 228) scale(0.7)"><path d="M8 16c3.314 0 6-2 6-5.5 0-1.44-.714-2.89-1.166-3.778C12.024 5.143 10.9 3.5 8 0 5.1 3.5 3.976 5.143 3.166 6.722 2.714 7.61 2 9.06 2 10.5 2 14 4.686 16 8 16m0-1c-2.21 0-4-1.343-4-3.5 0-.93.258-1.695.672-2.528C5.2 7.865 6.1 6.5 8 4c1.9 2.5 2.8 3.865 3.328 4.972.414.833.672 1.598.672 2.528 0 2.157-1.79 3.5-4 3.5" fill="#f0883e"/></g><rect x="244" y="258" width="12" height="12" rx="2" fill="#b07219" opacity="0.85"/><text x="264" y="268" class="t t-label">Java</text><text x="444" y="268" class="t t-value" text-anchor="end">17.2%</text><g transform="translate(494, 252) scale(0.7)"><path d="M8 16c3.314 0 6-2 6-5.5 0-1.44-.714-2.89-1.166-3.778C12.024 5.143 10.9 3.5 8 0 5.1 3.5 3.976 5.143 3.166 6.722 2.714 7.61 2 9.06 2 10.5 2 14 4.686 16 8 16m0-1c-2.21 0-4-1.343-4-3.5 0-.93.258-1.695.672-2.528C5.2 7.865 6.1 6.5 8 4c1.9 2.5 2.8 3.865 3.328 4.972.414.833.672 1.598.672 2.528 0 2.157-1.79 3.5-4 3.5" fill="#f0883e"/></g><rect x="244" y="282" width="12" height="12" rx="2" fill="#3178c6" opacity="0.85"/><text x="264" y="292" class="t t-label">TypeScript</text><text x="444" y="292" class="t t-value" text-anchor="end">14.5%</text><g transform="translate(494, 276) scale(0.7)"><path d="M8 16c3.314 0 6-2 6-5.5 0-1.44-.714-2.89-1.166-3.778C12.024 5.143 10.9 3.5 8 0 5.1 3.5 3.976 5.143 3.166 6.722 2.714 7.61 2 9.06 2 10.5 2 14 4.686 16 8 16m0-1c-2.21 0-4-1.343-4-3.5 0-.93.258-1.695.672-2.528C5.2 7.865 6.1 6.5 8 4c1.9 2.5 2.8 3.865 3.328 4.972.414.833.672 1.598.672 2.528 0 2.157-1.79 3.5-4 3.5" fill="#f0883e"/></g><rect x="244" y="306" width="12" height="12" rx="2" fill="#3572A5" opacity="0.85"/><text x="264" y="316" class="t t-label">Python</text><text x="444" y="316" class="t t-value" text-anchor="end">9.3%</text><g transform="translate(494, 300) scale(0.7)"><path d="M8 16c3.314 0 6-2 6-5.5 0-1.44-.714-2.89-1.166-3.778C12.024 5.143 10.9 3.5 8 0 5.1 3.5 3.976 5.143 3.166 6.722 2.714 7.61 2 9.06 2 10.5 2 14 4.686 16 8 16m0-1c-2.21 0-4-1.343-4-3.5 0-.93.258-1.695.672-2.528C5.2 7.865 6.1 6.5 8 4c1.9 2.5 2.8 3.865 3.328 4.972.414.833.672 1.598.672 2.528 0 2.157-1.79 3.5-4 3.5" fill="#f0883e"/></g><rect x="244" y="330" width="12" height="12" rx="2" fill="#89e051" opacity="0.85"/><text x="264" y="340" class="t t-label">Shell</text><text x="444" y="340" class="t t-value" text-anchor="end">7.5%</text><g transform="translate(494, 324) scale(0.7)"><path d="M8 16c3.314 0 6-2 6-5.5 0-1.44-.714-2.89-1.166-3.778C12.024 5.143 10.9 3.5 8 0 5.1 3.5 3.976 5.143 3.166 6.722 2.714 7.61 2 9.06 2 10.5 2 14 4.686 16 8 16m0-1c-2.21 0-4-1.343-4-3.5 0-.93.258-1.695.672-2.528C5.2 7.865 6.1 6.5 8 4c1.9 2.5 2.8 3.865 3.328 4.972.414.833.672 1.598.672 2.528 0 2.157-1.79 3.5-4 3.5" fill="#f0883e"/></g><rect x="244" y="354" width="12" height="12" rx="2" fill="#000080" opacity="0.85"/><text x="264" y="364" class="t t-label">Lua</text><text x="444" y="364" class="t t-value" text-anchor="end">2.7%</text><g transform="translate(494, 348) scale(0.7)"><path d="M8 16c3.314 0 6-2 6-5.5 0-1.44-.714-2.89-1.166-3.778C12.024 5.143 10.9 3.5 8 0 5.1 3.5 3.976 5.143 3.166 6.722 2.714 7.61 2 9.06 2 10.5 2 14 4.686 16 8 16m0-1c-2.21 0-4-1.343-4-3.5 0-.93.258-1.695.672-2.528C5.2 7.865 6.1 6.5 8 4c1.9 2.5 2.8 3.865 3.328 4.972.414.833.672 1.598.672 2.528 0 2.157-1.79 3.5-4 3.5" fill="#f0883e"/></g><rect x="244" y="378" width="12" height="12" rx="2" fill="#3D6117" opacity="0.85"/><text x="264" y="388" class="t t-label">TeX</text><text x="444" y="388" class="t t-value" text-anchor="end">2.0%</text><g transform="translate(494, 372) scale(0.7)"><path d="M8 16c3.314 0 6-2 6-5.5 0-1.44-.714-2.89-1.166-3.778C12.024 5.143 10.9 3.5 8 0 5.1 3.5 3.976 5.143 3.166 6.722 2.714 7.61 2 9.06 2 10.5 2 14 4.686 16 8 16m0-1c-2.21 0-4-1.343-4-3.5 0-.93.258-1.695.672-2.528C5.2 7.865 6.1 6.5 8 4c1.9 2.5 2.8 3.865 3.328 4.972.414.833.672 1.598.672 2.528 0 2.157-1.79 3.5-4 3.5" fill="#f0883e"/></g><rect x="244" y="402" width="12" height="12" rx="2" fill="#663399" opacity="0.85"/><text x="264" y="412" class="t t-label">CSS</text><text x="444" y="412" class="t t-value" text-anchor="end">1.7%</text><g transform="translate(494, 396) scale(0.7)"><path d="M8 16c3.314 0 6-2 6-5.5 0-1.44-.714-2.89-1.166-3.778C12.024 5.143 10.9 3.5 8 0 5.1 3.5 3.976 5.143 3.166 6.722 2.714 7.61 2 9.06 2 10.5 2 14 4.686 16 8 16m0-1c-2.21 0-4-1.343-4-3.5 0-.93.258-1.695.672-2.528C5.2 7.865 6.1 6.5 8 4c1.9 2.5 2.8 3.865 3.328 4.972.414.833.672 1.598.672 2.528 0 2.157-1.79 3.5-4 3.5" fill="#f0883e"/></g><rect x="244" y="426" width="12" height="12" rx="2" fill="#00ADD8" opacity="0.85"/><text x="264" y="436" class="t t-label">Go Template</text><text x="444" y="436" class="t t-value" text-anchor="end">1.2%</text><g transform="translate(494, 420) scale(0.7)"><path d="M8 16c3.314 0 6-2 6-5.5 0-1.44-.714-2.89-1.166-3.778C12.024 5.143 10.9 3.5 8 0 5.1 3.5 3.976 5.143 3.166 6.722 2.714 7.61 2 9.06 2 10.5 2 14 4.686 16 8 16m0-1c-2.21 0-4-1.343-4-3.5 0-.93.258-1.695.672-2.528C5.2 7.865 6.1 6.5 8 4c1.9 2.5 2.8 3.865 3.328 4.972.414.833.672 1.598.672 2.528 0 2.157-1.79 3.5-4 3.5" fill="#f0883e"/></g><text x="24" y="506" class="t t-h">TECH STACK</text><text x="24" y="522" class="t t-sub">Detected from topics and dependency manifests</text><text x="24" y="543" class="t t-subhdr">WEB FRAMEWORKS</text><text x="24" y="566" class="t t-label">astro</text><rect x="174" y="554" width="500" height="18" rx="3" fill="#58a6ff" opacity="0.85"/><text x="682" y="566" class="t t-value">1</text><g transform="translate(695, 554) scale(0.7)"><path d="M8 16c3.314 0 6-2 6-5.5 0-1.44-.714-2.89-1.166-3.778C12.024 5.143 10.9 3.5 8 0 5.1 3.5 3.976 5.143 3.166 6.722 2.714 7.61 2 9.06 2 10.5 2 14 4.686 16 8 16m0-1c-2.21 0-4-1.343-4-3.5 0-.93.258-1.695.672-2.528C5.2 7.865 6.1 6.5 8 4c1.9 2.5 2.8 3.865 3.328 4.972.414.833.672 1.598.672 2.528 0 2.157-1.79 3.5-4 3.5" fill="#f0883e"/></g><text x="24" y="594" class="t t-label">react</text><rect x="174" y="582" width="500" height="18" rx="3" fill="#3fb950" opacity="0.85"/><text x="682" y="594" class="t t-value">1</text><g transform="translate(695, 582) scale(0.7)"><path d="M8 16c3.314 0 6-2 6-5.5 0-1.44-.714-2.89-1.166-3.778C12.024 5.143 10.9 3.5 8 0 5.1 3.5 3.976 5.143 3.166 6.722 2.714 7.61 2 9.06 2 10.5 2 14 4.686 16 8 16m0-1c-2.21 0-4-1.343-4-3.5 0-.93.258-1.695.672-2.528C5.2 7.865 6.1 6.5 8 4c1.9 2.5 2.8 3.865 3.328 4.972.414.833.672 1.598.672 2.528 0 2.157-1.79 3.5-4 3.5" fill="#f0883e"/></g><text x="24" y="622" class="t t-label">fiber</text><rect x="174" y="610" width="500" height="18" rx="3" fill="#d29922" opacity="0.85"/><text x="682" y="622" class="t t-value">1</text><text x="24" y="650" class="t t-label">react-dom</text><rect x="174" y="638" width="500" height="18" rx="3" fill="#f85149" opacity="0.85"/><text x="682" y="650" class="t t-value">1</text><text x="24" y="678" class="t t-label">gin</text><rect x="174" y="666" width="500" height="18" rx="3" fill="#bc8cff" opacity="0.85"/><text x="682" y="678" class="t t-value">1</text><line x1="24" y1="708" x2="784" y2="708" stroke="#30363d" stroke-opacity="0.6" stroke-width="1"/><text x="24" y="731" class="t t-subhdr">ML &amp; AI</text><text x="24" y="754" class="t t-label">scikit-learn</text><rect x="174" y="742" width="500" height="18" rx="3" fill="#58a6ff" opacity="0.85"/><text x="682" y="754" class="t t-value">2</text><text x="24" y="782" class="t t-label">pytorch</text><rect x="174" y="770" width="250" height="18" rx="3" fill="#3fb950" opacity="0.85"/><text x="432" y="782" class="t t-value">1</text><text x="24" y="810" class="t t-label">keras</text><rect x="174" y="798" width="250" height="18" rx="3" fill="#d29922" opacity="0.85"/><text x="432" y="810" class="t t-value">1</text><text x="24" y="838" class="t t-label">sklearn</text><rect x="174" y="826" width="250" height="18" rx="3" fill="#f85149" opacity="0.85"/><text x="432" y="838" class="t t-value">1</text><text x="24" y="866" class="t t-label">tensorflow</text><rect x="174" y="854" width="250" height="18" rx="3" fill="#bc8cff" opacity="0.85"/><text x="432" y="866" class="t t-value">1</text><line x1="24" y1="896" x2="784" y2="896" stroke="#30363d" stroke-opacity="0.6" stroke-width="1"/><text x="24" y="919" class="t t-subhdr">DATABASES</text><text x="24" y="942" class="t t-label">SQLAlchemy</text><rect x="174" y="930" width="500" height="18" rx="3" fill="#58a6ff" opacity="0.85"/><text x="682" y="942" class="t t-value">1</text><line x1="24" y1="972" x2="784" y2="972" stroke="#30363d" stroke-opacity="0.6" stroke-width="1"/><text x="24" y="995" class="t t-subhdr">CLOUD &amp; INFRASTRUCTURE</text><text x="24" y="1018" class="t t-label">docker</text><rect x="174" y="1006" width="500" height="18" rx="3" fill="#58a6ff" opacity="0.85"/><text x="682" y="1018" class="t t-value">2</text><g transform="translate(695, 1006) scale(0.7)"><path d="M8 16c3.314 0 6-2 6-5.5 0-1.44-.714-2.89-1.166-3.778C12.024 5.143 10.9 3.5 8 0 5.1 3.5 3.976 5.143 3.166 6.722 2.714 7.61 2 9.06 2 10.5 2 14 4.686 16 8 16m0-1c-2.21 0-4-1.343-4-3.5 0-.93.258-1.695.672-2.528C5.2 7.865 6.1 6.5 8 4c1.9 2.5 2.8 3.865 3.328 4.972.414.833.672 1.598.672 2.528 0 2.157-1.79 3.5-4 3.5" fill="#f0883e"/></g><text x="24" y="1088" class="t t-h">SIGNATURE PROJECTS</text><text x="24" y="1104" class="t t-sub">Top projects by complexity score (languages, disk usage, code size)</text><rect x="24" y="1114" width="760" height="74" rx="6" fill="#161b22" stroke="#30363d" stroke-width="1"/><rect x="24" y="1114" width="4" height="74" rx="2" fill="#58a6ff"/><text x="40" y="1132" class="t t-card-title">resume-generator</text><text x="768" y="1132" class="t t-value" text-anchor="end">score 282</text><text x="40" y="1148" class="t t-card-detail">A data-driven CLI tool that transforms YAML/JSON/TOML resume data into polished PDFs usin…</text><rect x="40" y="1156" width="70" height="16" rx="8" fill="#d29922" fill-opacity="0.15" stroke="#d29922" stroke-opacity="0.4" stroke-width="1"/><text x="75" y="1167" fill="#d29922" font-size="9" class="t t-pill" text-anchor="middle">CLI Tools</text><rect x="116" y="1156" width="76" height="16" rx="8" fill="#f85149" fill-opacity="0.15" stroke="#f85149" stroke-opacity="0.4" stroke-width="1"/><text x="154" y="1167" fill="#f85149" font-size="9" class="t t-pill" text-anchor="middle">Automation</text><rect x="24" y="1198" width="760" height="74" rx="6" fill="#161b22" stroke="#30363d" stroke-width="1"/><rect x="24" y="1198" width="4" height="74" rx="2" fill="#3fb950"/><text x="40" y="1216" class="t t-card-title">urmzd.com</text><text x="768" y="1216" class="t t-value" text-anchor="end">score 258</text><text x="40" y="1232" class="t t-card-detail">Personal website and blog built with Astro, TypeScript, and MDX—featuring fast static sit…</text><rect x="40" y="1240" width="64" height="16" rx="8" fill="#f85149" fill-opacity="0.15" stroke="#f85149" stroke-opacity="0.4" stroke-width="1"/><text x="72" y="1251" fill="#f85149" font-size="9" class="t t-pill" text-anchor="middle">Web Apps</text><rect x="110" y="1240" width="112" height="16" rx="8" fill="#bc8cff" fill-opacity="0.15" stroke="#bc8cff" stroke-opacity="0.4" stroke-width="1"/><text x="166" y="1251" fill="#bc8cff" font-size="9" class="t t-pill" text-anchor="middle">Personal Website</text><rect x="24" y="1282" width="760" height="74" rx="6" fill="#161b22" stroke="#30363d" stroke-width="1"/><rect x="24" y="1282" width="4" height="74" rx="2" fill="#d29922"/><text x="40" y="1300" class="t t-card-title">lepus-classifier</text><text x="768" y="1300" class="t t-value" text-anchor="end">score 253</text><text x="40" y="1316" class="t t-card-detail">A CNN research project exploring optimal image classification architectures for small dat…</text><rect x="40" y="1324" width="106" height="16" rx="8" fill="#bc8cff" fill-opacity="0.15" stroke="#bc8cff" stroke-opacity="0.4" stroke-width="1"/><text x="93" y="1335" fill="#bc8cff" font-size="9" class="t t-pill" text-anchor="middle">Computer Vision</text><rect x="152" y="1324" width="112" height="16" rx="8" fill="#39d2c0" fill-opacity="0.15" stroke="#39d2c0" stroke-opacity="0.4" stroke-width="1"/><text x="208" y="1335" fill="#39d2c0" font-size="9" class="t t-pill" text-anchor="middle">Machine Learning</text><rect x="24" y="1366" width="760" height="74" rx="6" fill="#161b22" stroke="#30363d" stroke-width="1"/><rect x="24" y="1366" width="4" height="74" rx="2" fill="#f85149"/><text x="40" y="1384" class="t t-card-title">dotfiles</text><text x="768" y="1384" class="t t-value" text-anchor="end">score 243</text><text x="40" y="1400" class="t t-card-detail">Modern dotfiles with Chezmoi and Nix, providing one-command environment bootstrap for mac…</text><rect x="40" y="1408" width="52" height="16" rx="8" fill="#39d2c0" fill-opacity="0.15" stroke="#39d2c0" stroke-opacity="0.4" stroke-width="1"/><text x="66" y="1419" fill="#39d2c0" font-size="9" class="t t-pill" text-anchor="middle">DevOps</text><rect x="98" y="1408" width="76" height="16" rx="8" fill="#db61a2" fill-opacity="0.15" stroke="#db61a2" stroke-opacity="0.4" stroke-width="1"/><text x="136" y="1419" fill="#db61a2" font-size="9" class="t t-pill" text-anchor="middle">Automation</text><rect x="24" y="1450" width="760" height="74" rx="6" fill="#161b22" stroke="#30363d" stroke-width="1"/><rect x="24" y="1450" width="4" height="74" rx="2" fill="#bc8cff"/><text x="40" y="1468" class="t t-card-title">linear-gp</text><text x="768" y="1468" class="t t-value" text-anchor="end">score 237</text><text x="40" y="1484" class="t t-card-detail">A production-grade Rust framework for Linear Genetic Programming research, featuring modu…</text><rect x="40" y="1492" width="112" height="16" rx="8" fill="#db61a2" fill-opacity="0.15" stroke="#db61a2" stroke-opacity="0.4" stroke-width="1"/><text x="96" y="1503" fill="#db61a2" font-size="9" class="t t-pill" text-anchor="middle">Machine Learning</text><rect x="158" y="1492" width="64" height="16" rx="8" fill="#79c0ff" fill-opacity="0.15" stroke="#79c0ff" stroke-opacity="0.4" stroke-width="1"/><text x="190" y="1503" fill="#79c0ff" font-size="9" class="t t-pill" text-anchor="middle">Research</text><text x="24" y="1570" class="t t-h">AT A GLANCE</text><text x="24" y="1586" class="t t-sub">Contribution activity over the past year</text><rect x="24" y="1596" width="140" height="72" rx="8" fill="#161b22" stroke="#30363d" stroke-width="1"/><circle cx="38" cy="1612" r="4" fill="#58a6ff"/><text x="48" y="1616" class="t t-stat-label">COMMITS</text><text x="94" y="1648" fill="#58a6ff" class="t t-stat-value" text-anchor="middle">419</text><rect x="179" y="1596" width="140" height="72" rx="8" fill="#161b22" stroke="#30363d" stroke-width="1"/><circle cx="193" cy="1612" r="4" fill="#3fb950"/><text x="203" y="1616" class="t t-stat-label">PRS</text><text x="249" y="1648" fill="#3fb950" class="t t-stat-value" text-anchor="middle">3</text><rect x="334" y="1596" width="140" height="72" rx="8" fill="#161b22" stroke="#30363d" stroke-width="1"/><circle cx="348" cy="1612" r="4" fill="#d29922"/><text x="358" y="1616" class="t t-stat-label">REVIEWS</text><text x="404" y="1648" fill="#d29922" class="t t-stat-value" text-anchor="middle">5</text><rect x="489" y="1596" width="140" height="72" rx="8" fill="#161b22" stroke="#30363d" stroke-width="1"/><circle cx="503" cy="1612" r="4" fill="#bc8cff"/><text x="513" y="1616" class="t t-stat-label">REPOS</text><text x="559" y="1648" fill="#bc8cff" class="t t-stat-value" text-anchor="middle">12</text><text x="24" y="1714" class="t t-h">OPEN SOURCE CONTRIBUTIONS</text><text x="24" y="1730" class="t t-sub">External repositories contributed to (all time)</text><rect x="24" y="1740" width="760" height="44" rx="6" fill="#161b22" stroke="#30363d" stroke-width="1"/><rect x="24" y="1740" width="4" height="44" rx="2" fill="#58a6ff"/><text x="40" y="1758" class="t t-card-title">MathisWellmann/gym-rs</text><text x="40" y="1774" class="t t-card-detail">★ 124 · Rust</text><rect x="24" y="1792" width="760" height="44" rx="6" fill="#161b22" stroke="#30363d" stroke-width="1"/><rect x="24" y="1792" width="4" height="44" rx="2" fill="#3fb950"/><text x="40" y="1810" class="t t-card-title">getzep/graphiti</text><text x="40" y="1826" class="t t-card-detail">★ 22,622 · Python</text></svg>